<mxfile host="app.diagrams.net" modified="2024-04-14T22:42:14.636Z" agent="Mozilla/5.0 (X11; Linux x86_64) AppleWebKit/537.36 (KHTML, like Gecko) Chrome/123.0.0.0 Safari/537.36" etag="FouodrDZ7yWszffdUvP7" version="24.2.5" type="device">
  <diagram id="prtHgNgQTEPvFCAcTncT" name="Page-1">
    <mxGraphModel dx="1234" dy="1119" grid="1" gridSize="10" guides="1" tooltips="1" connect="1" arrows="1" fold="1" page="1" pageScale="1" pageWidth="827" pageHeight="1169" math="0" shadow="0">
      <root>
        <mxCell id="0" />
        <mxCell id="1" parent="0" />
        <mxCell id="ll1lLlzKCRj8LsRUfJXb-1" value="Auth API&lt;div&gt;(Auth Microservice)&lt;/div&gt;" style="rounded=1;whiteSpace=wrap;html=1;" vertex="1" parent="1">
          <mxGeometry x="612" y="160" width="120" height="60" as="geometry" />
        </mxCell>
        <mxCell id="ll1lLlzKCRj8LsRUfJXb-2" value="Any API&lt;div&gt;(Other Microservice)&lt;br&gt;&lt;/div&gt;" style="rounded=1;whiteSpace=wrap;html=1;" vertex="1" parent="1">
          <mxGeometry x="322" y="370" width="120" height="60" as="geometry" />
        </mxCell>
        <mxCell id="ll1lLlzKCRj8LsRUfJXb-4" value="Postgres" style="shape=cylinder3;whiteSpace=wrap;html=1;boundedLbl=1;backgroundOutline=1;size=15;" vertex="1" parent="1">
          <mxGeometry x="642" y="350" width="60" height="80" as="geometry" />
        </mxCell>
        <mxCell id="ll1lLlzKCRj8LsRUfJXb-6" style="edgeStyle=orthogonalEdgeStyle;rounded=0;orthogonalLoop=1;jettySize=auto;html=1;entryX=-0.024;entryY=0.145;entryDx=0;entryDy=0;exitX=0.5;exitY=0;exitDx=0;exitDy=0;exitPerimeter=0;entryPerimeter=0;" edge="1" parent="1" target="ll1lLlzKCRj8LsRUfJXb-1">
          <mxGeometry relative="1" as="geometry">
            <mxPoint x="381.97" y="169.9999999999999" as="sourcePoint" />
            <mxPoint x="541.97" y="169.9999999999999" as="targetPoint" />
          </mxGeometry>
        </mxCell>
        <mxCell id="ll1lLlzKCRj8LsRUfJXb-7" value="Auth" style="edgeLabel;html=1;align=center;verticalAlign=middle;resizable=0;points=[];" vertex="1" connectable="0" parent="ll1lLlzKCRj8LsRUfJXb-6">
          <mxGeometry x="0.3209" y="1" relative="1" as="geometry">
            <mxPoint x="-32" as="offset" />
          </mxGeometry>
        </mxCell>
        <mxCell id="ll1lLlzKCRj8LsRUfJXb-12" style="edgeStyle=orthogonalEdgeStyle;rounded=0;orthogonalLoop=1;jettySize=auto;html=1;" edge="1" parent="1" source="ll1lLlzKCRj8LsRUfJXb-5" target="ll1lLlzKCRj8LsRUfJXb-2">
          <mxGeometry relative="1" as="geometry" />
        </mxCell>
        <mxCell id="ll1lLlzKCRj8LsRUfJXb-13" value="JWT Token" style="edgeLabel;html=1;align=center;verticalAlign=middle;resizable=0;points=[];" vertex="1" connectable="0" parent="ll1lLlzKCRj8LsRUfJXb-12">
          <mxGeometry x="0.029" relative="1" as="geometry">
            <mxPoint as="offset" />
          </mxGeometry>
        </mxCell>
        <mxCell id="ll1lLlzKCRj8LsRUfJXb-16" value="&lt;i&gt;Ex: GET /api/products&lt;/i&gt;" style="edgeLabel;html=1;align=center;verticalAlign=middle;resizable=0;points=[];" vertex="1" connectable="0" parent="ll1lLlzKCRj8LsRUfJXb-12">
          <mxGeometry x="-0.4622" y="-1" relative="1" as="geometry">
            <mxPoint y="10" as="offset" />
          </mxGeometry>
        </mxCell>
        <mxCell id="ll1lLlzKCRj8LsRUfJXb-5" value="User" style="shape=umlActor;verticalLabelPosition=bottom;verticalAlign=top;html=1;outlineConnect=0;" vertex="1" parent="1">
          <mxGeometry x="367" y="160" width="30" height="60" as="geometry" />
        </mxCell>
        <mxCell id="ll1lLlzKCRj8LsRUfJXb-8" style="edgeStyle=orthogonalEdgeStyle;rounded=0;orthogonalLoop=1;jettySize=auto;html=1;entryX=1;entryY=1;entryDx=0;entryDy=0;entryPerimeter=0;exitX=0.011;exitY=0.834;exitDx=0;exitDy=0;exitPerimeter=0;" edge="1" parent="1" source="ll1lLlzKCRj8LsRUfJXb-1">
          <mxGeometry relative="1" as="geometry">
            <mxPoint x="542" y="209.9999999999999" as="sourcePoint" />
            <mxPoint x="397" y="209.9999999999999" as="targetPoint" />
          </mxGeometry>
        </mxCell>
        <mxCell id="ll1lLlzKCRj8LsRUfJXb-9" value="JWT Token" style="edgeLabel;html=1;align=center;verticalAlign=middle;resizable=0;points=[];" vertex="1" connectable="0" parent="ll1lLlzKCRj8LsRUfJXb-8">
          <mxGeometry x="0.1784" y="2" relative="1" as="geometry">
            <mxPoint x="9" as="offset" />
          </mxGeometry>
        </mxCell>
        <mxCell id="ll1lLlzKCRj8LsRUfJXb-10" style="edgeStyle=orthogonalEdgeStyle;rounded=0;orthogonalLoop=1;jettySize=auto;html=1;entryX=0.5;entryY=0;entryDx=0;entryDy=0;entryPerimeter=0;" edge="1" parent="1" source="ll1lLlzKCRj8LsRUfJXb-1" target="ll1lLlzKCRj8LsRUfJXb-4">
          <mxGeometry relative="1" as="geometry" />
        </mxCell>
        <mxCell id="ll1lLlzKCRj8LsRUfJXb-11" value="Valid if user exists" style="edgeLabel;html=1;align=center;verticalAlign=middle;resizable=0;points=[];" vertex="1" connectable="0" parent="ll1lLlzKCRj8LsRUfJXb-10">
          <mxGeometry x="-0.231" y="1" relative="1" as="geometry">
            <mxPoint as="offset" />
          </mxGeometry>
        </mxCell>
        <mxCell id="ll1lLlzKCRj8LsRUfJXb-15" style="edgeStyle=orthogonalEdgeStyle;rounded=0;orthogonalLoop=1;jettySize=auto;html=1;dashed=1;" edge="1" parent="1" source="ll1lLlzKCRj8LsRUfJXb-14">
          <mxGeometry relative="1" as="geometry">
            <mxPoint x="352" y="300" as="targetPoint" />
          </mxGeometry>
        </mxCell>
        <mxCell id="ll1lLlzKCRj8LsRUfJXb-14" value="&lt;p style=&quot;line-height: 80%;&quot;&gt;&lt;/p&gt;&lt;h1 style=&quot;margin-top: 0px; line-height: 50%;&quot;&gt;&lt;span style=&quot;background-color: initial; font-size: 12px; font-weight: normal;&quot;&gt;Other microservices can validate the token with &lt;/span&gt;&lt;b style=&quot;background-color: initial; font-size: 12px;&quot;&gt;secret_key&lt;/b&gt;&lt;span style=&quot;background-color: initial; font-size: 12px; font-weight: normal;&quot;&gt; without needing to consult the &lt;/span&gt;&lt;b style=&quot;background-color: initial; font-size: 12px;&quot;&gt;Auth API&lt;/b&gt;&lt;span style=&quot;background-color: initial; font-size: 12px; font-weight: normal;&quot;&gt;.&lt;/span&gt;&lt;br&gt;&lt;/h1&gt;&lt;p&gt;&lt;/p&gt;" style="text;html=1;whiteSpace=wrap;overflow=hidden;rounded=0;fillColor=#fff2cc;strokeColor=#d6b656;spacing=2;spacingLeft=7;align=left;dashed=1;" vertex="1" parent="1">
          <mxGeometry x="115" y="250" width="180" height="100" as="geometry" />
        </mxCell>
      </root>
    </mxGraphModel>
  </diagram>
</mxfile>
